<svg height="512pt" viewBox="0 0 512 512" width="512pt" xmlns="http://www.w3.org/2000/svg"><path d="m74.34375 213.65625-24-24c-3.128906-3.128906-3.128906-8.183594 0-11.3125l24-24 11.3125 11.3125-18.34375 18.34375 18.34375 18.34375zm0 0"/><path d="m149.65625 213.65625-11.3125-11.3125 18.34375-18.34375-18.34375-18.34375 11.3125-11.3125 24 24c3.128906 3.128906 3.128906 8.183594 0 11.3125zm0 0"/><path d="m96.40625 205.472656 16.007812-48 15.175782 5.0625-16.007813 48zm0 0"/><path d="m504 496v-480c0-4.414062-3.585938-8-8-8h-240c-4.414062 0-8 3.585938-8 8v480c0 4.414062 3.585938 8 8 8h240c4.414062 0 8-3.585938 8-8zm0 0" fill="#fddf81"/><path d="m280 72h192v320h-192zm0 0" fill="#fff8f1"/><path d="m496 512h-240c-8.824219 0-16-7.175781-16-16v-480c0-8.824219 7.175781-16 16-16h240c8.824219 0 16 7.175781 16 16v480c0 8.824219-7.175781 16-16 16zm-240-496v480h240v-480zm0 0"/><path d="m312 400h-32c-4.414062 0-8-3.585938-8-8v-320c0-4.414062 3.585938-8 8-8h32v16h-24v304h24zm0 0"/><path d="m472 400h-32v-16h24v-304h-24v-16h32c4.414062 0 8 3.585938 8 8v320c0 4.414062-3.585938 8-8 8zm0 0"/><path d="m328 64h96v16h-96zm0 0"/><path d="m400 448c0 13.253906-10.746094 24-24 24s-24-10.746094-24-24 10.746094-24 24-24 24 10.746094 24 24zm0 0" fill="#fff8f1"/><path d="m376 480c-17.648438 0-32-14.351562-32-32s14.351562-32 32-32 32 14.351562 32 32-14.351562 32-32 32zm0-48c-8.824219 0-16 7.175781-16 16s7.175781 16 16 16 16-7.175781 16-16-7.175781-16-16-16zm0 0"/><path d="m336 32h80v16h-80zm0 0"/><path d="m328 384h96v16h-96zm0 0"/><path d="m8 56h216v400h-216zm0 0" fill="#fdf8ff"/><path d="m8 56h216v64h-216zm0 0" fill="#cf71fb"/><path d="m224 64v-16h-216c-4.414062 0-8 3.585938-8 8v400c0 4.414062 3.585938 8 8 8h216v-16h-208v-320h208v-16h-208v-48zm0 0"/><path d="m32 80h16v16h-16zm0 0"/><path d="m64 80h16v16h-16zm0 0"/><path d="m96 80h16v16h-16zm0 0"/><path d="m48 240h64v16h-64zm0 0"/><path d="m128 240h96v16h-96zm0 0"/><path d="m176 272h48v16h-48zm0 0"/><path d="m48 272h112v16h-112zm0 0"/><path d="m48 304h64v16h-64zm0 0"/><path d="m128 304h96v16h-96zm0 0"/><path d="m176 336h48v16h-48zm0 0"/><path d="m48 336h112v16h-112zm0 0"/><path d="m48 400h64v16h-64zm0 0"/><path d="m128 400h32v16h-32zm0 0"/><path d="m312 312h48v48h-48zm0 0" fill="#f96437"/><path d="m360 368h-48c-4.414062 0-8-3.585938-8-8v-48c0-4.414062 3.585938-8 8-8h48c4.414062 0 8 3.585938 8 8v48c0 4.414062-3.585938 8-8 8zm-40-16h32v-32h-32zm0 0"/><path d="m392 312h48v48h-48zm0 0" fill="#f96437"/><path d="m440 368h-48c-4.414062 0-8-3.585938-8-8v-48c0-4.414062 3.585938-8 8-8h48c4.414062 0 8 3.585938 8 8v48c0 4.414062-3.585938 8-8 8zm-40-16h32v-32h-32zm0 0"/><path d="m312 104h128v96h-128zm0 0" fill="#f96437"/><path d="m440 208h-128c-4.414062 0-8-3.585938-8-8v-96c0-4.414062 3.585938-8 8-8h128c4.414062 0 8 3.585938 8 8v96c0 4.414062-3.585938 8-8 8zm-120-16h112v-80h-112zm0 0"/><path d="m312 232h128v48h-128zm0 0" fill="#f96437"/><path d="m440 288h-128c-4.414062 0-8-3.585938-8-8v-48c0-4.414062 3.585938-8 8-8h128c4.414062 0 8 3.585938 8 8v48c0 4.414062-3.585938 8-8 8zm-120-16h112v-32h-112zm0 0"/></svg>