<svg height="480pt" viewBox="-31 0 479 480" width="480pt" xmlns="http://www.w3.org/2000/svg"><path d="m24.5 88h368c8.835938 0 16 7.164062 16 16v232h-400v-232c0-8.835938 7.164062-16 16-16zm0 0" fill="#69aee6"/><path d="m8.5 336h400v64c0 8.835938-7.164062 16-16 16h-368c-8.835938 0-16-7.164062-16-16zm0 0" fill="#d6d6d6"/><path d="m176.5 416h64v56h-64zm0 0" fill="#a3a3a3"/><path d="m128.5 8h160c8.835938 0 16 7.164062 16 16v200h-192v-200c0-8.835938 7.164062-16 16-16zm0 0" fill="#75c1ff"/><path d="m112.5 224h192v64c0 8.835938-7.164062 16-16 16h-160c-8.835938 0-16-7.164062-16-16zm0 0" fill="#efefef"/><path d="m224.5 376c0 8.835938-7.164062 16-16 16s-16-7.164062-16-16 7.164062-16 16-16 16 7.164062 16 16zm0 0"/><path d="m128.5 312h160c13.25-.015625 23.984375-10.75 24-24v-264c-.015625-13.25-10.75-23.984375-24-24h-160c-13.25.015625-23.984375 10.75-24 24v264c.015625 13.25 10.75 23.984375 24 24zm160-16h-160c-4.417969-.003906-7.996094-3.582031-8-8v-56h176v56c-.003906 4.417969-3.582031 7.996094-8 8zm-160-280h160c4.417969.003906 7.996094 3.582031 8 8v192h-176v-192c.003906-4.417969 3.582031-7.996094 8-8zm0 0"/><path d="m224.5 264c0 8.835938-7.164062 16-16 16s-16-7.164062-16-16 7.164062-16 16-16 16 7.164062 16 16zm0 0"/><path d="m192.5 32h32v16h-32zm0 0"/><path d="m392.5 80h-64v16h64c4.417969.003906 7.996094 3.582031 8 8v224h-384v-224c.003906-4.417969 3.582031-7.996094 8-8h64v-16h-64c-13.25.015625-23.984375 10.75-24 24v296c.015625 13.25 10.75 23.984375 24 24h144v40h-32v16h144v-16h-32v-40h144c13.25-.015625 23.984375-10.75 24-24v-296c-.015625-13.25-10.75-23.984375-24-24zm-160 384h-48v-40h48zm168-64c-.003906 4.417969-3.582031 7.996094-8 8h-368c-4.417969-.003906-7.996094-3.582031-8-8v-56h384zm0 0"/></svg>