<svg height="512pt" viewBox="-16 0 512 512" width="512pt" xmlns="http://www.w3.org/2000/svg"><g fill="#cf71fb"><path d="m168 8h144v48h-144zm0 0"/><path d="m168 96h144v48h-144zm0 0"/><path d="m168 320h144v48h-144zm0 0"/></g><path d="m183.429688 232 56.566406-56.566406 56.570312 56.566406-56.570312 56.566406zm0 0" fill="#f96437"/><path d="m288 456c0 26.507812-21.492188 48-48 48s-48-21.492188-48-48 21.492188-48 48-48 48 21.492188 48 48zm0 0" fill="#fddf81"/><path d="m72 232c0 17.671875-14.328125 32-32 32s-32-14.328125-32-32 14.328125-32 32-32 32 14.328125 32 32zm0 0" fill="#fddf81"/><path d="m472 120c0 17.671875-14.328125 32-32 32s-32-14.328125-32-32 14.328125-32 32-32 32 14.328125 32 32zm0 0" fill="#fddf81"/><path d="m96 224h16v16h-16zm0 0"/><path d="m128 224h16v16h-16zm0 0"/><path d="m448 80.808594v-48.808594c0-4.425781-3.574219-8-8-8h-120v-16c0-4.425781-3.574219-8-8-8h-144c-4.425781 0-8 3.574219-8 8v16h-56c-4.425781 0-8 3.574219-8 8v80h-56c-4.425781 0-8 3.574219-8 8v72.808594c-18.230469 3.71875-32 19.878906-32 39.191406s13.769531 35.472656 32 39.191406v72.808594c0 4.425781 3.574219 8 8 8h120v16c0 4.425781 3.574219 8 8 8h64v24.640625c-27.089844 3.902344-48 27.207031-48 55.359375 0 30.871094 25.128906 56 56 56 28.152344 0 51.457031-20.910156 55.359375-48h88.640625c4.425781 0 8-3.574219 8-8v-216h48c4.425781 0 8-3.574219 8-8v-72.808594c18.230469-3.71875 32-19.871094 32-39.191406s-13.769531-35.472656-32-39.191406zm-272-64.808594h128v32h-128zm-64 24h48v16c0 4.425781 3.574219 8 8 8h64v24h-64c-4.425781 0-8 3.574219-8 8v16h-48zm192 64v32h-128v-32zm-288 128c0-13.230469 10.769531-24 24-24s24 10.769531 24 24-10.769531 24-24 24-24-10.769531-24-24zm144 88v16h-112v-64.808594c18.230469-3.71875 32-19.871094 32-39.191406s-13.769531-35.472656-32-39.191406v-64.808594h112v16c0 4.425781 3.574219 8 8 8h64v20.121094l-51.878906 51.878906h-20.121094v16h20.121094l51.878906 51.878906v20.121094h-64c-4.425781 0-8 3.574219-8 8zm80-133.257812 45.257812 45.257812-45.257812 45.257812-45.257812-45.257812zm-64 141.257812h128v32h-128zm64 168c-22.054688 0-40-17.945312-40-40s17.945312-40 40-40 40 17.945312 40 40-17.945312 40-40 40zm136-48h-80.640625c-3.527344-24.472656-22.902344-43.839844-47.359375-47.367188v-24.632812h64c4.425781 0 8-3.574219 8-8v-48c0-4.425781-3.574219-8-8-8h-64v-20.121094l51.878906-51.878906h76.121094zm56-224h-132.121094l-51.878906-51.878906v-20.121094h64c4.425781 0 8-3.574219 8-8v-48c0-4.425781-3.574219-8-8-8h-64v-24h64c4.425781 0 8-3.574219 8-8v-16h112v40.808594c-18.230469 3.71875-32 19.871094-32 39.191406s13.769531 35.472656 32 39.191406zm8-80c-13.230469 0-24-10.769531-24-24s10.769531-24 24-24 24 10.769531 24 24-10.769531 24-24 24zm0 0"/></svg>