<svg viewBox="1 -47 511.99902 511" xmlns="http://www.w3.org/2000/svg"><path d="m34.988281.5h442.023438c19.261719 0 34.988281 15.722656 34.988281 34.988281v347.371094c0 19.261719-15.726562 34.984375-34.988281 34.984375h-181.027344c-5.519531 0-9.996094-4.472656-9.996094-9.992188 0-5.523437 4.476563-10 9.996094-10h181.027344c8.226562 0 14.996093-6.765624 14.996093-14.992187v-286.265625h-472.015624v286.265625c0 8.226563 6.769531 14.992187 14.996093 14.992187h181.023438c5.523437 0 9.996093 4.476563 9.996093 10 0 5.519532-4.472656 9.992188-9.996093 9.992188h-181.023438c-19.261719 0-34.988281-15.722656-34.988281-34.984375v-347.371094c0-19.265625 15.726562-34.988281 34.988281-34.988281zm120.046875 205.449219c0-14.152344-5.738281-26.964844-15.011718-36.242188-7.039063-7.039062-16.113282-12.039062-26.261719-14.039062v-17.730469c0-5.511719-4.472657-9.980469-9.984375-9.980469-5.511719 0-9.980469 4.46875-9.980469 9.980469v17.730469c-10.148437 2-19.222656 7-26.261719 14.039062-9.273437 9.273438-15.011718 22.089844-15.011718 36.242188 0 14.152343 5.738281 26.96875 15.011718 36.242187 9.277344 9.273438 22.089844 15.011719 36.242188 15.011719 8.644531 0 16.46875 3.503906 22.128906 9.164063 5.664062 5.664062 9.167969 13.488281 9.167969 22.128906 0 8.644531-3.503907 16.46875-9.167969 22.132812-5.660156 5.660156-13.484375 9.164063-22.128906 9.164063-8.640625 0-16.464844-3.503907-22.128906-9.164063-5.660157-5.664062-9.164063-13.488281-9.164063-22.132812 0-5.511719-4.46875-9.976563-9.980469-9.976563-5.511718 0-9.980468 4.46875-9.980468 9.976563 0 14.152344 5.738281 26.96875 15.011718 36.246094 7.039063 7.035156 16.113282 12.035156 26.261719 14.039062v17.730469c0 5.511719 4.472656 9.976562 9.980469 9.976562 5.511718 0 9.984375-4.46875 9.984375-9.976562v-17.730469c10.148437-2.003906 19.222656-7.003906 26.261719-14.039062 9.273437-9.277344 15.011718-22.09375 15.011718-36.246094 0-14.148438-5.738281-26.964844-15.011718-36.238282-9.277344-9.277343-22.089844-15.015624-36.242188-15.015624-8.644531 0-16.46875-3.5-22.128906-9.164063-5.664063-5.660156-9.167969-13.484375-9.167969-22.128906s3.503906-16.46875 9.167969-22.128907c5.660156-5.664062 13.484375-9.164062 22.128906-9.164062 8.640625 0 16.464844 3.5 22.128906 9.164062 5.660156 5.660157 9.164063 13.488282 9.164063 22.128907 0 5.511719 4.46875 9.980469 9.980469 9.980469 5.511718 0 9.980468-4.46875 9.980468-9.980469zm100.964844 191.902343c-5.519531 0-9.996094 4.476563-9.996094 10 0 5.519532 4.476563 9.992188 9.996094 9.992188 5.523438 0 9.996094-4.472656 9.996094-9.992188 0-5.523437-4.472656-10-9.996094-10zm-60.75-137.25c-5.519531 0-9.996094 4.476563-9.996094 9.996094v85.894532c0 5.523437 4.476563 9.996093 9.996094 9.996093h85.894531c5.523438 0 10-4.472656 10-9.996093v-85.894532c0-5.519531-4.476562-9.996094-10-9.996094zm75.898438 19.992188h-65.902344v65.902344h65.902344zm-75.898438-152.636719c-5.519531 0-9.996094 4.476563-9.996094 9.996094v85.898437c0 5.519532 4.476563 9.996094 9.996094 9.996094h85.894531c5.523438 0 10-4.476562 10-9.996094v-85.898437c0-5.519531-4.476562-9.996094-10-9.996094zm75.898438 19.992188h-65.902344v65.902343h65.902344zm-82.777344-89.40625h27.367187c5.519531 0 9.996094-4.476563 9.996094-9.996094s-4.476563-9.996094-9.996094-9.996094h-27.367187c-5.519532 0-9.996094 4.476563-9.996094 9.996094s4.476562 9.996094 9.996094 9.996094zm-67.351563 0h27.363281c5.523438 0 10-4.476563 10-9.996094s-4.476562-9.996094-10-9.996094h-27.363281c-5.519531 0-9.996093 4.476563-9.996093 9.996094s4.476562 9.996094 9.996093 9.996094zm-67.351562 0h27.363281c5.523438 0 9.996094-4.476563 9.996094-9.996094s-4.472656-9.996094-9.996094-9.996094h-27.363281c-5.523438 0-9.996094 4.476563-9.996094 9.996094s4.472656 9.996094 9.996094 9.996094zm278.460937 228.496093h118.894532c5.519531 0 9.996093-4.476562 9.996093-9.996093 0-5.523438-4.476562-9.996094-9.996093-9.996094h-118.894532c-5.523437 0-9.996094 4.472656-9.996094 9.996094 0 5.519531 4.472657 9.996093 9.996094 9.996093zm0 73.007813h59.445313c5.523437 0 9.996093-4.476563 9.996093-9.996094 0-5.523437-4.476562-9.996093-9.996093-9.996093h-59.445313c-5.523437 0-9.996094 4.476562-9.996094 9.996093s4.472657 9.996094 9.996094 9.996094zm0-36.503906h118.894532c5.519531 0 9.996093-4.476563 9.996093-9.996094s-4.476562-9.996094-9.996093-9.996094h-118.894532c-5.523437 0-9.996094 4.476563-9.996094 9.996094s4.472657 9.996094 9.996094 9.996094zm0-169.148438h118.894532c5.519531 0 9.996093-4.476562 9.996093-10 0-5.519531-4.476562-9.996093-9.996093-9.996093h-118.894532c-5.523437 0-9.996094 4.476562-9.996094 9.996093 0 5.523438 4.472657 10 9.996094 10zm0 73.007813h59.445313c5.523437 0 9.996093-4.476563 9.996093-10 0-5.519532-4.476562-9.996094-9.996093-9.996094h-59.445313c-5.523437 0-9.996094 4.476562-9.996094 9.996094 0 5.523437 4.472657 10 9.996094 10zm0-36.503906h118.894532c5.519531 0 9.996093-4.476563 9.996093-10 0-5.519532-4.476562-9.996094-9.996093-9.996094h-118.894532c-5.523437 0-9.996094 4.476562-9.996094 9.996094 0 5.523437 4.472657 10 9.996094 10zm-312.136718-114.296876h472.015624v-41.113281c0-8.230469-6.769531-14.996093-14.996093-14.996093h-442.023438c-8.226562 0-14.996093 6.765624-14.996093 14.996093zm0 0" fill-rule="evenodd"/></svg>