<svg height="494pt" viewBox="-62 0 494 494.84005" width="494pt" xmlns="http://www.w3.org/2000/svg"><path d="m363.003906 239.921875-55.960937 37.15625-85.359375-48.378906c19.269531-11.027344 33.582031-29.460938 38.359375-51.277344zm0 0" fill="#00acea"/><path d="m363.003906 314.25-55.109375 33.320312-1 .609376-53.679687 32.710937-67.5-35.449219 121.328125-68.363281zm0 0" fill="#00acea"/><path d="m307.042969 348.429688v68.351562l-121.328125 70.058594v-141.398438l67.5 35.449219 53.679687-32.710937zm0 0" fill="#00efd1"/><path d="m307.042969 277.078125-121.328125 68.363281-120.902344-68.363281 80.183594-45.609375v-.007812c.589844.277343 1.199218.539062 1.796875.800781v46.917969c.003906 9.050781 7.34375 16.382812 16.390625 16.378906h34.460937c9.050781.003906 16.386719-7.328125 16.390625-16.378906v-46.621094c2.613282-1.15625 5.167969-2.441406 7.648438-3.859375zm0 0" fill="#00efd1"/><path d="m102.195312 183c-2.125-7.125-3.1875-14.523438-3.152343-21.960938.140625-40.757812 33.921875-75.277343 76.261719-77.757812 47.25-2.78125 86.488281 33.238281 86.488281 78.039062.003906 5.414063-.582031 10.8125-1.75 16.101563-4.777344 21.816406-19.089844 40.25-38.359375 51.277344-2.480469 1.417969-5.035156 2.703125-7.648438 3.859375v15.882812h-67.242187v-16.179687c-.597657-.261719-1.207031-.523438-1.796875-.800781-20.59375-9.222657-36.195313-26.886719-42.800782-48.460938zm0 0" fill="#fedb41"/><path d="m214.035156 248.441406v30.738282c-.003906 9.050781-7.339844 16.382812-16.390625 16.378906h-34.460937c-9.046875.003906-16.386719-7.328125-16.390625-16.378906v-30.738282zm0 0" fill="#00acea"/><path d="m185.714844 345.441406v141.398438l-120.902344-70.058594v-68.351562l.042969-.058594 53.359375 32.519531zm0 0" fill="#00efd1"/><path d="m185.714844 345.441406-67.5 35.449219-53.359375-32.519531-1.320313-.800782-55.109375-33.320312 56.386719-37.171875zm0 0" fill="#00acea"/><path d="m144.996094 231.460938v.007812l-80.183594 45.609375-56.386719-37.15625 93.769531-56.921875c6.605469 21.574219 22.207032 39.238281 42.800782 48.460938zm0 0" fill="#00acea"/><g fill="#083863"><path d="m.425781 314.40625c.035157 2.738281 1.472657 5.265625 3.808594 6.691406l52.480469 31.757813v63.925781c.019531 2.859375 1.558594 5.496094 4.039062 6.921875l120.925782 70.058594c2.480468 1.433593 5.542968 1.4375 8.027343.007812l121.167969-70.0625c2.4375-1.445312 3.902344-4.09375 3.839844-6.925781v-64.179688l52.261718-31.5c2.367188-1.410156 3.851563-3.929687 3.945313-6.679687.074219-2.734375-1.261719-5.316406-3.53125-6.835937l-45.90625-30.5 45.933594-30.5c2.28125-1.511719 3.628906-4.085938 3.574219-6.824219-.050782-2.734375-1.5-5.253907-3.839844-6.675781l-98.253906-59.644532c.59375-4.011718.894531-8.0625.894531-12.117187 0-23.390625-9.75-45.722657-26.898438-61.628907-18.382812-17.121093-42.988281-25.941406-68.058593-24.398437-22.394532 1.285156-43.503907 10.882813-59.199219 26.910156-15.785157 16.105469-24.515625 36.988281-24.59375 58.800781-.023438 6.128907.621093 12.242188 1.925781 18.230469l-88.699219 53.839844c-2.34375 1.421875-3.796875 3.949219-3.847656 6.691406-.050781 2.742188 1.304687 5.316407 3.597656 6.828125l46.253907 30.480469-46.253907 30.492187c-2.289062 1.511719-3.648437 4.089844-3.59375 6.835938zm72.289063 48.1875 41.285156 25.125c2.414062 1.464844 5.417969 1.558594 7.921875.253906l55.792969-29.292968v114.277343l-105-60.785156zm82-106.171875h51v22.757813c.0625 2.175781-.761719 4.28125-2.285156 5.835937-1.519532 1.554687-3.609376 2.421875-5.785157 2.40625h-34.460937c-2.214844.03125-4.355469-.820313-5.945313-2.363281-1.585937-1.546875-2.496093-3.660156-2.523437-5.878906zm-16 22.757813c.066406 13.449218 11.019531 24.300781 24.46875 24.242187h34.460937c6.417969.011719 12.574219-2.542969 17.09375-7.097656 4.523438-4.554688 7.035157-10.726563 6.976563-17.144531v-41.085938l68.910156 38.964844-104.984375 59.195312-104.6875-59.195312 57.761719-32.859375zm55 193.800781v-114.300781l55.78125 29.300781c1.144531.601562 2.421875.917969 3.71875.917969 1.417968 0 2.804687-.40625 4-1.167969l41.5-25.398438v49.828125zm110.011718-132.242188-50.804687 30.960938-50.472656-26.507813 104.25-58.734375 41.367187 27.476563zm2.988282-73.042969-69.882813-39.605468c12.707031-9.964844 22.390625-23.269532 27.96875-38.425782l83.285157 50.554688zm-179.652344-154.292968c12.914062-13.183594 30.285156-21.078125 48.710938-22.136719 1.511718-.089844 3.019531-.132813 4.523437-.132813 19.148437-.070312 37.605469 7.152344 51.621094 20.199219 13.929687 12.894531 21.855469 31.007813 21.875 49.988281.003906 4.839844-.519531 9.664063-1.5625 14.386719-4.183594 19.101563-16.765625 35.886719-34.511719 46.046875-2.214844 1.261719-4.703125 2.4375-7.082031 3.492188-2.933594 1.261718-4.855469 4.121094-4.921875 7.3125v7.863281h-51v-8.160156c.015625-3.183594-1.863282-6.070313-4.78125-7.34375l-.203125-.09375c-.445313-.191407-.886719-.386719-1.324219-.59375l-.101562-.050781c-18.492188-8.261719-32.511719-24.109376-38.453126-43.46875-1.898437-6.375-2.847656-12.992188-2.8125-19.644532.0625-17.625 7.175782-34.546875 20.023438-47.664062zm-28.992188 81.460937c6.566407 14.867188 17.214844 27.566407 30.710938 36.625l-63.660156 36.214844-41.738282-27.5zm-32.9375 91.585938 103.871094 58.730469-50.496094 26.519531-49.5-30.171875-45.601562-27.570313zm0 0"/><path d="m180.714844 55.96875c4.417968 0 8-3.582031 8-8v-39.96875c0-4.417969-3.582032-8-8-8-4.417969 0-8 3.582031-8 8v39.96875c0 4.417969 3.582031 8 8 8zm0 0"/><path d="m25.015625 165.421875h41.597656c4.417969 0 8-3.582031 8-8 0-4.421875-3.582031-8-8-8h-41.597656c-4.417969 0-8 3.578125-8 8 0 4.417969 3.582031 8 8 8zm0 0"/><path d="m286.222656 157.421875c0 4.417969 3.582032 8 8 8h41.601563c4.417969 0 8-3.582031 8-8 0-4.421875-3.582031-8-8-8h-41.601563c-4.417968 0-8 3.578125-8 8zm0 0"/><path d="m94.714844 85.738281c3.203125 3.042969 8.265625 2.914063 11.308594-.289062 3.042968-3.203125 2.914062-8.265625-.289063-11.308594l-29.621094-28.140625c-3.203125-3.042969-8.265625-2.914062-11.308593.289062-3.042969 3.203126-2.914063 8.269532.289062 11.3125zm0 0"/><path d="m260.613281 87.941406c2.050781 0 4.023438-.785156 5.511719-2.203125l29.617188-28.136719c3.203124-3.042968 3.335937-8.109374.289062-11.3125-3.042969-3.203124-8.105469-3.332031-11.308594-.289062l-29.617187 28.140625c-2.375 2.253906-3.132813 5.726563-1.921875 8.765625 1.214844 3.039062 4.160156 5.035156 7.429687 5.035156zm0 0"/></g></svg>